<svg width="14" height="16" viewBox="0 0 14 16" fill="none" xmlns="http://www.w3.org/2000/svg">
<path fill-rule="evenodd" clip-rule="evenodd" d="M8 15L8 3.135L12.36 6.768C12.784 7.122 13.415 7.064 13.768 6.64C14.122 6.215 14.064 5.585 13.64 5.231L7.64 0.231C7.593 0.192 7.538 0.173 7.486 0.144C7.444 0.12 7.408 0.0909993 7.362 0.0729996C7.247 0.0279996 7.126 0.00100009 7.004 0.0010001C7.003 0.0010001 7.001 -3.06023e-07 7 -3.0598e-07C6.999 -3.05936e-07 6.997 0.0010001 6.996 0.0010001C6.874 0.0010001 6.753 0.0279996 6.638 0.0729997C6.592 0.0909993 6.556 0.12 6.514 0.144C6.462 0.173 6.407 0.192 6.36 0.231L0.36 5.231C0.123 5.43 -4.49615e-07 5.714 -4.37114e-07 6C-4.27235e-07 6.226 0.0759996 6.453 0.232 6.64C0.585 7.064 1.216 7.122 1.64 6.768L6 3.135L6 15C6 15.552 6.448 16 7 16C7.552 16 8 15.552 8 15Z" fill="white"/>
</svg>
