<svg width="80" height="80" viewBox="0 0 80 80" fill="none" xmlns="http://www.w3.org/2000/svg">
<path d="M40 2.5C19.2894 2.5 2.5 19.2894 2.5 40C2.5 60.7106 19.2894 77.5 40 77.5C60.7106 77.5 77.5 60.7106 77.5 40C77.5 19.2894 60.7106 2.5 40 2.5ZM62.9809 62.9809C57.2826 68.6623 49.6731 72.0186 41.6353 72.396C33.5974 72.7733 25.707 70.1446 19.5015 65.022C13.2959 59.8995 9.21979 52.65 8.06732 44.6863C6.91486 36.7226 8.76861 28.615 13.2674 21.9434C17.7661 15.2718 24.5876 10.514 32.4027 8.59723C40.2177 6.68041 48.4665 7.74184 55.5417 11.5747C62.6169 15.4075 68.0117 21.7372 70.675 29.3304C73.3382 36.9236 73.079 45.2364 69.948 52.6489C68.3161 56.5113 65.95 60.0203 62.9809 62.9809Z" fill="#9747FF"/>
<path d="M39.9999 59.9999C44.3097 59.9999 48.4429 58.2879 51.4904 55.2404C54.5378 52.193 56.2499 48.0597 56.2499 43.7499H23.7499C23.7499 48.0597 25.4619 52.193 28.5094 55.2404C31.5569 58.2879 35.6901 59.9999 39.9999 59.9999ZM32.1494 35.6706L35.3503 31.8293L26.2499 24.2457L17.1494 31.8293L20.3504 35.6706L26.2499 30.7542L32.1494 35.6706ZM44.6494 31.8293L47.8504 35.6706L53.7499 30.7542L59.6494 35.6706L62.8504 31.8293L53.7499 24.2457L44.6494 31.8293Z" fill="#9747FF"/>
</svg>
