<svg width="80" height="80" viewBox="0 0 80 80" fill="none" xmlns="http://www.w3.org/2000/svg">
<path d="M39.9999 73.3334C32.2777 71.3889 25.9021 66.9578 20.8733 60.04C15.8444 53.1222 13.331 45.4422 13.3333 37V16.6667L39.9999 6.66669L66.6666 16.6667V37C66.6666 45.4445 64.1533 53.1256 59.1266 60.0434C54.0999 66.9611 47.7244 71.3911 39.9999 73.3334ZM39.9999 66.3334C45.3888 64.6667 49.8888 61.3745 53.4999 56.4567C57.111 51.5389 59.2221 46.0534 59.8333 40H39.9999V13.75L19.9999 21.25V38.5C19.9999 38.8889 20.0555 39.3889 20.1666 40H39.9999V66.3334Z" fill="#0FA958"/>
</svg>
