<svg width="80" height="80" viewBox="0 0 80 80" fill="none" xmlns="http://www.w3.org/2000/svg">
<g clip-path="url(#clip0_2_358)">
<path d="M36.3999 9.56C36.7668 8.93053 37.2922 8.40824 37.9239 8.04524C38.5556 7.68224 39.2714 7.49121 39.9999 7.49121C40.7285 7.49121 41.4443 7.68224 42.076 8.04524C42.7077 8.40824 43.2331 8.93053 43.5999 9.56L52.9166 25.5533L71.0099 29.4733C71.7217 29.628 72.3804 29.9665 72.9205 30.4551C73.4606 30.9437 73.8632 31.5654 74.0881 32.2581C74.3131 32.9508 74.3525 33.6904 74.2025 34.4031C74.0525 35.1158 73.7183 35.7767 73.2333 36.32L60.8999 50.1233L62.7666 68.54C62.8403 69.2652 62.7224 69.997 62.4247 70.6624C62.1271 71.3277 61.6601 71.9034 61.0704 72.3318C60.4807 72.7603 59.7889 73.0265 59.0641 73.104C58.3393 73.1815 57.6069 73.0675 56.9399 72.7733L39.9999 65.3067L23.06 72.7733C22.393 73.0675 21.6606 73.1815 20.9358 73.104C20.211 73.0265 19.5192 72.7603 18.9295 72.3318C18.3398 71.9034 17.8728 71.3277 17.5752 70.6624C17.2775 69.997 17.1596 69.2652 17.2333 68.54L19.1 50.1233L6.76662 36.3233C6.28071 35.7801 5.9458 35.1189 5.79533 34.4057C5.64486 33.6926 5.68408 32.9524 5.9091 32.2592C6.13411 31.5659 6.53703 30.9438 7.07764 30.455C7.61825 29.9661 8.27763 29.6277 8.98995 29.4733L27.0833 25.5533L36.3999 9.56Z" fill="#F24E1E"/>
</g>
<defs>
<clipPath id="clip0_2_358">
<rect width="80" height="80" fill="white"/>
</clipPath>
</defs>
</svg>
