<svg width="80" height="80" viewBox="0 0 80 80" fill="none" xmlns="http://www.w3.org/2000/svg">
<path fill-rule="evenodd" clip-rule="evenodd" d="M53.7899 15.76L59.8899 21.86C68.8532 30.8267 73.3332 35.3067 73.3332 40.8733C73.3332 46.4433 68.8532 50.9233 59.8899 59.8867C50.9232 68.8533 46.4432 73.3333 40.8732 73.3333C35.3065 73.3333 30.8232 68.8533 21.8599 59.89L15.7599 53.79C10.6099 48.6367 8.03321 46.0633 7.07655 42.72C6.11655 39.3767 6.93655 35.8267 8.57655 28.73L9.51988 24.6367C10.8965 18.6633 11.5865 15.6767 13.6299 13.63C15.6765 11.5867 18.6632 10.8967 24.6365 9.51998L28.7299 8.57332C35.8299 6.93665 39.3765 6.11665 42.7199 7.07332C46.0632 8.03332 48.6399 10.61 53.7899 15.76ZM37.1532 47.76C34.9099 45.52 34.9265 42.3 36.2699 39.75C35.9373 39.2696 35.7835 38.688 35.8351 38.106C35.8867 37.5241 36.1406 36.9786 36.5525 36.5643C36.9644 36.1499 37.5085 35.893 38.0901 35.838C38.6718 35.783 39.2543 35.9335 39.7365 36.2633C40.8699 35.6633 42.1132 35.3433 43.3532 35.3567C44.0163 35.3628 44.6497 35.6322 45.1141 36.1054C45.5786 36.5786 45.8361 37.2169 45.8299 37.88C45.8237 38.543 45.5544 39.1765 45.0812 39.6409C44.6079 40.1054 43.9696 40.3628 43.3065 40.3567C42.5347 40.3852 41.8053 40.717 41.2765 41.28C39.9865 42.57 40.3232 43.8633 40.6865 44.2267C41.0532 44.59 42.3432 44.9267 43.6332 43.6367C46.2465 41.0233 50.7599 40.1567 53.6499 43.0466C55.8932 45.29 55.8765 48.51 54.5332 51.06C54.8637 51.5404 55.0158 52.1213 54.9632 52.7021C54.9107 53.2828 54.6568 53.8269 54.2454 54.2403C53.8341 54.6536 53.2912 54.9101 52.7107 54.9655C52.1302 55.0208 51.5486 54.8715 51.0665 54.5433C49.5707 55.3638 47.8356 55.6372 46.1599 55.3167C45.5101 55.1832 44.94 54.797 44.5749 54.2432C44.2098 53.6893 44.0797 53.0131 44.2132 52.3633C44.3467 51.7135 44.7329 51.1434 45.2867 50.7783C45.8406 50.4133 46.5168 50.2832 47.1665 50.4167C47.7565 50.54 48.7099 50.3467 49.5265 49.53C50.8165 48.2367 50.4799 46.9467 50.1165 46.5833C49.7499 46.22 48.4599 45.8833 47.1699 47.1733C44.5565 49.7867 40.0432 50.6533 37.1532 47.76ZM33.3999 34.31C34.0188 33.6908 34.5098 32.9558 34.8447 32.1469C35.1796 31.3379 35.3519 30.471 35.3517 29.5955C35.3516 28.72 35.179 27.8531 34.8438 27.0443C34.5086 26.2355 34.0174 25.5006 33.3982 24.8817C32.779 24.2627 32.044 23.7717 31.2351 23.4368C30.4262 23.1019 29.5592 22.9297 28.6837 22.9298C27.8082 22.93 26.9413 23.1026 26.1325 23.4377C25.3237 23.7729 24.5888 24.2641 23.9699 24.8833C22.7198 26.1338 22.0177 27.8297 22.018 29.5978C22.0184 31.366 22.7211 33.0616 23.9715 34.3117C25.222 35.5617 26.9179 36.2638 28.6861 36.2635C30.4542 36.2632 32.1498 35.5605 33.3999 34.31Z" fill="#699BF7"/>
</svg>
