<svg width="736" height="736" viewBox="0 0 736 736" fill="none" xmlns="http://www.w3.org/2000/svg">
<path d="M696.9 119.6C696.9 172.5 652.05 216.2 596.85 216.2C541.65 216.2 496.8 172.5 496.8 119.6C496.8 66.7 541.65 23 596.85 23C652.05 23 696.9 66.7 696.9 119.6Z" fill="#947151"/>
<path d="M656.65 119.6C656.65 151.8 630.2 178.25 596.85 178.25C563.5 178.25 537.05 151.8 537.05 119.6C537.05 87.4 563.5 60.95 596.85 60.95C630.2 60.95 656.65 87.4 656.65 119.6Z" fill="#E0AC7E"/>
<path d="M139.15 216.2C194.406 216.2 239.2 172.951 239.2 119.6C239.2 66.2493 194.406 23 139.15 23C83.894 23 39.1001 66.2493 39.1001 119.6C39.1001 172.951 83.894 216.2 139.15 216.2Z" fill="#947151"/>
<path d="M139.15 178.25C172.177 178.25 198.95 151.992 198.95 119.6C198.95 87.2085 172.177 60.95 139.15 60.95C106.123 60.95 79.3501 87.2085 79.3501 119.6C79.3501 151.992 106.123 178.25 139.15 178.25Z" fill="#E0AC7E"/>
<path d="M713 426.65C713 634.8 480.7 713 368 713C255.3 713 23 634.8 23 426.65C23 162.15 149.5 101.2 368 101.2C586.5 101.2 713 162.15 713 426.65Z" fill="#947151"/>
<path d="M217.35 524.4C217.35 417.45 319.7 377.2 369.15 377.2C418.6 377.2 520.95 417.45 520.95 524.4C520.95 660.1 465.75 692.3 369.15 692.3C272.55 692.3 217.35 660.1 217.35 524.4Z" fill="#E0AC7E"/>
<path d="M376.05 23C379.5 41.4 369.15 55.2 369.15 55.2C353.05 33.35 320.85 26.45 320.85 26.45C333.5 41.4 330.05 64.4 330.05 64.4C308.2 56.35 288.65 57.5 288.65 57.5C334.65 92 324.3 196.65 324.3 196.65C378.35 139.15 446.2 111.55 446.2 111.55C431.25 57.5 376.05 23 376.05 23Z" fill="#947151"/>
<path d="M418.6 655.5C419.75 655.5 419.75 653.2 419.75 652.05C419.75 644 396.75 635.95 368 635.95C339.25 635.95 316.25 642.85 316.25 652.05C316.25 653.2 316.25 655.5 317.4 655.5H418.6ZM262.2 527.85C262.2 484.15 309.35 474.95 368 474.95C426.65 474.95 473.8 483 473.8 527.85C473.8 563.5 388.7 594.55 368 594.55C347.3 594.55 262.2 562.35 262.2 527.85ZM679.65 353.05L660.1 356.5L640.55 359.95C627.9 362.25 614.1 363.4 601.45 365.7C575 369.15 549.7 371.45 523.25 373.75C472.65 377.2 419.75 379.5 368 379.5C316.25 379.5 263.35 377.2 211.6 372.6C159.85 368 106.95 361.1 56.35 349.6C55.2 349.6 55.2 348.45 55.2 348.45L56.35 347.3C82.7999 348.45 108.1 350.75 134.55 351.9C161 353.05 186.3 354.2 212.75 355.35C264.5 356.5 316.25 357.65 369.15 357.65C420.9 357.65 472.65 357.65 525.55 356.5C577.3 355.35 629.05 353.05 681.95 351.9C683.1 351.9 683.1 351.9 683.1 353.05C680.8 351.9 680.8 353.05 679.65 353.05Z" fill="#3E4347"/>
<path d="M225.4 373.75C225.4 392.15 207 407.1 184 407.1C161 407.1 142.6 392.15 142.6 373.75C142.6 355.35 161 359.95 184 359.95C207 359.95 225.4 355.35 225.4 373.75ZM594.55 373.75C594.55 392.15 576.15 407.1 553.15 407.1C530.15 407.1 511.75 392.15 511.75 373.75C511.75 355.35 530.15 359.95 553.15 359.95C576.15 359.95 594.55 355.35 594.55 373.75Z" fill="#3E4347"/>
</svg>
